<?xml version="1.0" standalone="no"?>
<!DOCTYPE svg PUBLIC "-//W3C//DTD SVG 20010904//EN"
 "http://www.w3.org/TR/2001/REC-SVG-20010904/DTD/svg10.dtd">
<svg version="1.0" xmlns="http://www.w3.org/2000/svg"
 width="972.000000pt" height="972.000000pt" viewBox="0 0 972.000000 972.000000"
 preserveAspectRatio="xMidYMid meet">
<metadata>
Created by potrace 1.14, written by Peter Selinger 2001-2017
</metadata>
<g transform="translate(0.000000,972.000000) scale(0.100000,-0.100000)"
fill="#000000" stroke="none">
<path d="M0 4860 l0 -4860 4860 0 4860 0 0 4860 0 4860 -4860 0 -4860 0 0
-4860z m3996 2666 c281 -156 524 -310 524 -332 0 -7 -11 -21 -25 -30 -25 -16
-27 -16 -79 22 -245 177 -339 243 -458 323 -76 50 -138 94 -138 96 0 15 41 -3
176 -79z m792 -503 c145 -102 345 -254 505 -383 234 -188 244 -196 338 -277
46 -40 111 -96 144 -124 321 -276 1000 -954 1201 -1199 16 -19 47 -55 70 -80
68 -74 134 -154 354 -427 253 -314 535 -708 700 -978 169 -278 231 -387 324
-573 192 -384 288 -647 366 -997 35 -161 38 -437 5 -565 -42 -162 -138 -302
-260 -380 -111 -70 -301 -118 -465 -117 -212 0 -560 80 -855 197 -265 105
-693 319 -639 320 6 0 87 -26 180 -59 145 -50 241 -77 481 -131 76 -17 312
-23 408 -11 350 47 556 257 593 606 62 578 -307 1475 -1026 2490 -88 124 -244
334 -294 395 -16 19 -52 65 -81 101 -85 106 -163 201 -320 386 -352 415 -901
969 -1331 1343 -54 47 -124 108 -156 135 -32 28 -88 75 -125 105 -37 30 -72
60 -79 65 -6 6 -46 39 -88 73 -43 35 -78 68 -78 74 0 14 40 58 52 58 5 0 39
-21 76 -47z"/>
</g>
</svg>
