<?xml version="1.0" standalone="no"?>
<!DOCTYPE svg PUBLIC "-//W3C//DTD SVG 20010904//EN"
 "http://www.w3.org/TR/2001/REC-SVG-20010904/DTD/svg10.dtd">
<svg version="1.0" xmlns="http://www.w3.org/2000/svg"
 width="32.000000pt" height="32.000000pt" viewBox="0 0 32.000000 32.000000"
 preserveAspectRatio="xMidYMid meet">

<g transform="translate(0.000000,32.000000) scale(0.100000,-0.100000)"
fill="#000000" stroke="none">
<path d="M160 275 c0 -14 5 -25 10 -25 6 0 10 11 10 25 0 14 -4 25 -10 25 -5
0 -10 -11 -10 -25z"/>
<path d="M66 252 c-3 -5 3 -17 14 -27 17 -15 20 -16 20 -3 0 19 -26 42 -34 30z"/>
<path d="M236 219 c-8 -42 -93 -127 -135 -135 -40 -8 -39 -19 2 -44 90 -55
205 20 194 128 -4 39 -29 82 -47 82 -4 0 -10 -14 -14 -31z"/>
<path d="M141 216 c-38 -21 -66 -88 -45 -109 10 -9 72 37 100 74 18 25 21 35
11 41 -17 11 -38 9 -66 -6z"/>
<path d="M20 150 c0 -5 11 -10 25 -10 14 0 25 5 25 10 0 6 -11 10 -25 10 -14
0 -25 -4 -25 -10z"/>
</g>
</svg>
